<mxfile host="Electron" modified="2023-11-26T06:14:34.225Z" agent="Mozilla/5.0 (Windows NT 10.0; Win64; x64) AppleWebKit/537.36 (KHTML, like Gecko) draw.io/22.1.2 Chrome/114.0.5735.289 Electron/25.9.4 Safari/537.36" etag="jf5Vv04ZKRrAuubW5C2u" version="22.1.2" type="device">
  <diagram id="C5RBs43oDa-KdzZeNtuy" name="Page-1">
    <mxGraphModel dx="1434" dy="836" grid="1" gridSize="10" guides="1" tooltips="1" connect="1" arrows="1" fold="1" page="1" pageScale="1" pageWidth="827" pageHeight="1169" math="0" shadow="0">
      <root>
        <mxCell id="WIyWlLk6GJQsqaUBKTNV-0" />
        <mxCell id="WIyWlLk6GJQsqaUBKTNV-1" parent="WIyWlLk6GJQsqaUBKTNV-0" />
        <mxCell id="zkfFHV4jXpPFQw0GAbJ--0" value="Event" style="swimlane;fontStyle=2;align=center;verticalAlign=top;childLayout=stackLayout;horizontal=1;startSize=26;horizontalStack=0;resizeParent=1;resizeLast=0;collapsible=1;marginBottom=0;rounded=0;shadow=0;strokeWidth=1;" parent="WIyWlLk6GJQsqaUBKTNV-1" vertex="1">
          <mxGeometry x="10" y="33" width="390" height="210" as="geometry">
            <mxRectangle x="230" y="140" width="160" height="26" as="alternateBounds" />
          </mxGeometry>
        </mxCell>
        <mxCell id="xE-fL1ADkK_QcBk2O9oQ-3" value="Responsibilities: Manage general event details." style="whiteSpace=wrap;html=1;" vertex="1" parent="zkfFHV4jXpPFQw0GAbJ--0">
          <mxGeometry y="26" width="390" height="60" as="geometry" />
        </mxCell>
        <mxCell id="xE-fL1ADkK_QcBk2O9oQ-4" value="Methods: getStandardDetails, getFullDetails, getShortDescription." style="whiteSpace=wrap;html=1;" vertex="1" parent="zkfFHV4jXpPFQw0GAbJ--0">
          <mxGeometry y="86" width="390" height="60" as="geometry" />
        </mxCell>
        <mxCell id="xE-fL1ADkK_QcBk2O9oQ-5" value="Member Variables: title, description, date, time, address (Address object)." style="whiteSpace=wrap;html=1;" vertex="1" parent="zkfFHV4jXpPFQw0GAbJ--0">
          <mxGeometry y="146" width="390" height="60" as="geometry" />
        </mxCell>
        <mxCell id="Cqdy1bNukQ9OVtizLtk0-6" style="edgeStyle=orthogonalEdgeStyle;rounded=0;orthogonalLoop=1;jettySize=auto;html=1;exitX=0.5;exitY=0;exitDx=0;exitDy=0;entryX=0.25;entryY=1;entryDx=0;entryDy=0;endArrow=block;endFill=1;endSize=10;" parent="WIyWlLk6GJQsqaUBKTNV-1" source="zkfFHV4jXpPFQw0GAbJ--6" target="zkfFHV4jXpPFQw0GAbJ--0" edge="1">
          <mxGeometry relative="1" as="geometry" />
        </mxCell>
        <mxCell id="zkfFHV4jXpPFQw0GAbJ--6" value="Lecture" style="swimlane;fontStyle=0;align=center;verticalAlign=top;childLayout=stackLayout;horizontal=1;startSize=26;horizontalStack=0;resizeParent=1;resizeLast=0;collapsible=1;marginBottom=0;rounded=0;shadow=0;strokeWidth=1;" parent="WIyWlLk6GJQsqaUBKTNV-1" vertex="1">
          <mxGeometry x="20" y="290" width="160" height="210" as="geometry">
            <mxRectangle x="130" y="380" width="160" height="26" as="alternateBounds" />
          </mxGeometry>
        </mxCell>
        <mxCell id="Cqdy1bNukQ9OVtizLtk0-1" value="Responsibilities: Manage Lecture event types." style="whiteSpace=wrap;html=1;" parent="zkfFHV4jXpPFQw0GAbJ--6" vertex="1">
          <mxGeometry y="26" width="160" height="60" as="geometry" />
        </mxCell>
        <mxCell id="Cqdy1bNukQ9OVtizLtk0-9" value="Methods: inherent Event Classes" style="whiteSpace=wrap;html=1;" parent="zkfFHV4jXpPFQw0GAbJ--6" vertex="1">
          <mxGeometry y="86" width="160" height="64" as="geometry" />
        </mxCell>
        <mxCell id="xE-fL1ADkK_QcBk2O9oQ-0" value="Variables:&amp;nbsp;speaker,&amp;nbsp;capacity" style="whiteSpace=wrap;html=1;" vertex="1" parent="zkfFHV4jXpPFQw0GAbJ--6">
          <mxGeometry y="150" width="160" height="60" as="geometry" />
        </mxCell>
        <mxCell id="zkfFHV4jXpPFQw0GAbJ--13" value="Address" style="swimlane;fontStyle=0;align=center;verticalAlign=top;childLayout=stackLayout;horizontal=1;startSize=26;horizontalStack=0;resizeParent=1;resizeLast=0;collapsible=1;marginBottom=0;rounded=0;shadow=0;strokeWidth=1;" parent="WIyWlLk6GJQsqaUBKTNV-1" vertex="1">
          <mxGeometry x="590" y="270" width="230" height="206" as="geometry">
            <mxRectangle x="340" y="380" width="170" height="26" as="alternateBounds" />
          </mxGeometry>
        </mxCell>
        <mxCell id="xE-fL1ADkK_QcBk2O9oQ-6" value="Responsibilities: Store address details." style="whiteSpace=wrap;html=1;" vertex="1" parent="zkfFHV4jXpPFQw0GAbJ--13">
          <mxGeometry y="26" width="230" height="60" as="geometry" />
        </mxCell>
        <mxCell id="xE-fL1ADkK_QcBk2O9oQ-7" value="Methods: WriteToFIle" style="whiteSpace=wrap;html=1;" vertex="1" parent="zkfFHV4jXpPFQw0GAbJ--13">
          <mxGeometry y="86" width="230" height="60" as="geometry" />
        </mxCell>
        <mxCell id="xE-fL1ADkK_QcBk2O9oQ-9" value="Variables: street, city, state, country." style="whiteSpace=wrap;html=1;" vertex="1" parent="zkfFHV4jXpPFQw0GAbJ--13">
          <mxGeometry y="146" width="230" height="60" as="geometry" />
        </mxCell>
        <mxCell id="zkfFHV4jXpPFQw0GAbJ--17" value="Program" style="swimlane;fontStyle=0;align=center;verticalAlign=top;childLayout=stackLayout;horizontal=1;startSize=26;horizontalStack=0;resizeParent=1;resizeLast=0;collapsible=1;marginBottom=0;rounded=0;shadow=0;strokeWidth=1;" parent="WIyWlLk6GJQsqaUBKTNV-1" vertex="1">
          <mxGeometry x="420" y="30" width="390" height="216" as="geometry">
            <mxRectangle x="550" y="140" width="160" height="26" as="alternateBounds" />
          </mxGeometry>
        </mxCell>
        <mxCell id="xE-fL1ADkK_QcBk2O9oQ-10" value="&lt;div&gt;Responsibilities: creates instances of derived event classes (Lecture, Reception, Outdoor).&lt;/div&gt;&lt;div&gt;&amp;nbsp; &amp;nbsp; Each event instance uses methods from the base Event class and their specific methods.&lt;/div&gt;&lt;div&gt;&amp;nbsp; &amp;nbsp; The main function displays marketing messages for each event.&lt;/div&gt;" style="whiteSpace=wrap;html=1;" vertex="1" parent="zkfFHV4jXpPFQw0GAbJ--17">
          <mxGeometry y="26" width="390" height="144" as="geometry" />
        </mxCell>
        <mxCell id="Cqdy1bNukQ9OVtizLtk0-7" style="edgeStyle=orthogonalEdgeStyle;rounded=0;orthogonalLoop=1;jettySize=auto;html=1;exitX=0.5;exitY=0;exitDx=0;exitDy=0;entryX=0.5;entryY=1;entryDx=0;entryDy=0;endArrow=block;endFill=1;endSize=10;" parent="WIyWlLk6GJQsqaUBKTNV-1" source="Cqdy1bNukQ9OVtizLtk0-2" target="zkfFHV4jXpPFQw0GAbJ--0" edge="1">
          <mxGeometry relative="1" as="geometry" />
        </mxCell>
        <mxCell id="Cqdy1bNukQ9OVtizLtk0-2" value="Outdoor" style="swimlane;fontStyle=0;align=center;verticalAlign=top;childLayout=stackLayout;horizontal=1;startSize=26;horizontalStack=0;resizeParent=1;resizeLast=0;collapsible=1;marginBottom=0;rounded=0;shadow=0;strokeWidth=1;" parent="WIyWlLk6GJQsqaUBKTNV-1" vertex="1">
          <mxGeometry x="200" y="290" width="160" height="210" as="geometry">
            <mxRectangle x="130" y="380" width="160" height="26" as="alternateBounds" />
          </mxGeometry>
        </mxCell>
        <mxCell id="Cqdy1bNukQ9OVtizLtk0-3" value="Responsibilities: Manage&amp;nbsp;Outdoor event types." style="whiteSpace=wrap;html=1;" parent="Cqdy1bNukQ9OVtizLtk0-2" vertex="1">
          <mxGeometry y="26" width="160" height="60" as="geometry" />
        </mxCell>
        <mxCell id="Cqdy1bNukQ9OVtizLtk0-10" value="Methods:&amp;nbsp;RSVP" style="whiteSpace=wrap;html=1;" parent="Cqdy1bNukQ9OVtizLtk0-2" vertex="1">
          <mxGeometry y="86" width="160" height="64" as="geometry" />
        </mxCell>
        <mxCell id="xE-fL1ADkK_QcBk2O9oQ-11" value="Variables: inherent Event variables" style="whiteSpace=wrap;html=1;" vertex="1" parent="Cqdy1bNukQ9OVtizLtk0-2">
          <mxGeometry y="150" width="160" height="60" as="geometry" />
        </mxCell>
        <mxCell id="Cqdy1bNukQ9OVtizLtk0-8" style="edgeStyle=orthogonalEdgeStyle;rounded=0;orthogonalLoop=1;jettySize=auto;html=1;exitX=0.5;exitY=0;exitDx=0;exitDy=0;entryX=0.75;entryY=1;entryDx=0;entryDy=0;strokeWidth=1;endArrow=block;endFill=1;endSize=10;" parent="WIyWlLk6GJQsqaUBKTNV-1" source="Cqdy1bNukQ9OVtizLtk0-4" target="zkfFHV4jXpPFQw0GAbJ--0" edge="1">
          <mxGeometry relative="1" as="geometry" />
        </mxCell>
        <mxCell id="Cqdy1bNukQ9OVtizLtk0-4" value="Reception" style="swimlane;fontStyle=0;align=center;verticalAlign=top;childLayout=stackLayout;horizontal=1;startSize=26;horizontalStack=0;resizeParent=1;resizeLast=0;collapsible=1;marginBottom=0;rounded=0;shadow=0;strokeWidth=1;" parent="WIyWlLk6GJQsqaUBKTNV-1" vertex="1">
          <mxGeometry x="380" y="290" width="160" height="210" as="geometry">
            <mxRectangle x="130" y="380" width="160" height="26" as="alternateBounds" />
          </mxGeometry>
        </mxCell>
        <mxCell id="Cqdy1bNukQ9OVtizLtk0-5" value="Responsibilities: Manage Reception event types." style="whiteSpace=wrap;html=1;" parent="Cqdy1bNukQ9OVtizLtk0-4" vertex="1">
          <mxGeometry y="26" width="160" height="60" as="geometry" />
        </mxCell>
        <mxCell id="Cqdy1bNukQ9OVtizLtk0-11" value="Methods: GetForcast" style="whiteSpace=wrap;html=1;" parent="Cqdy1bNukQ9OVtizLtk0-4" vertex="1">
          <mxGeometry y="86" width="160" height="54" as="geometry" />
        </mxCell>
        <mxCell id="xE-fL1ADkK_QcBk2O9oQ-12" value="Variables:&amp;nbsp;inherent Event variables" style="whiteSpace=wrap;html=1;" vertex="1" parent="Cqdy1bNukQ9OVtizLtk0-4">
          <mxGeometry y="140" width="160" height="60" as="geometry" />
        </mxCell>
      </root>
    </mxGraphModel>
  </diagram>
</mxfile>
